<svg xmlns="http://www.w3.org/2000/svg" viewBox="0 0 536.5 238.8"><defs><style>.cls-1{fill:#00e789;}.cls-2{fill:#222226;}</style></defs><title>资源 263</title><g id="图层_2" data-name="图层 2"><g id="图层_1-2" data-name="图层 1"><g id="LOGO"><path class="cls-1" d="M52.5,156.1l19.8,27.2v55.5L0,208.1V63.6A19.78,19.78,0,0,1,19.8,43.8h0l69.6,95.8,35.4,21.6V42L92,28.1v81.6L72.2,82.5V0l72.3,30.7V164.8a19.78,19.78,0,0,1-19.8,19.8h0L74.5,152.8,19.8,77.4V196.8l32.7,13.9Z"/></g><g id="S"><path class="cls-2" d="M532,122a30.48,30.48,0,0,0-11.7-8.4c-7.4-3.4-15.4-5-23.4-5.8-2.9-.3-5.9-.5-8.5-1.8a9.68,9.68,0,0,1-3.9-3.6c-2.8-4.9.7-9.4,5-10.9a24.1,24.1,0,0,1,8-1s12.5,0,12.5,13.4l24.9-.1c0-31.6-37.4-31.6-37.4-31.6-9.3,0-19.4,1.5-27.1,7.5a26.5,26.5,0,0,0-9.8,16.4c-1.3,6.9-.4,14.3,4,19.8a31,31,0,0,0,10.6,8c7.2,3.5,15,5.1,22.9,5.9,2.9.3,5.9.5,8.5,1.8a9.34,9.34,0,0,1,4,3.6c2.8,4.9-.7,9.4-5,10.9a24.1,24.1,0,0,1-8,1s-12.5,0-12.5-13.4l-26.5.1c0,31.6,38.9,31.6,39,31.6,7.1,0,14.3-.9,21-3.8a29.24,29.24,0,0,0,16-16.2C537.5,137.6,537.4,128.6,532,122Z"/></g><g id="L"><path class="cls-2" d="M392.4,162.9V74.5h19.7a5.8,5.8,0,0,1,5.8,5.8h0v62.6h31.4v20Z"/></g><g id="U"><path class="cls-2" d="M347,80.3v49.6a12.76,12.76,0,0,1-12.8,12.8h0a12.82,12.82,0,0,1-12.8-12.8V80.3a5.8,5.8,0,0,0-5.8-5.8H295.8v58.3c0,21.2,17.2,32.5,38.4,32.5h0c21.2,0,38.4-11.3,38.4-32.5V74.5H352.9a6,6,0,0,0-5.9,5.8Z"/></g><g id="N"><path class="cls-2" d="M199.4,162.9V74.5h17.1a5.64,5.64,0,0,1,4.6,2.3l29.4,42V80.4a5.8,5.8,0,0,1,5.8-5.8H276V163H258.9a5.83,5.83,0,0,1-4.6-2.2l-29.4-41.2V163Z"/></g></g></g></svg>