<svg xmlns="http://www.w3.org/2000/svg" viewBox="0 0 310.31 525.89"><defs><style>.cls-1{fill:#82bd39;}</style></defs><title>资源 1</title><g id="图层_2" data-name="图层 2"><g id="隔离模式"><polygon class="cls-1" points="198.6 238.14 155.95 178.45 155.95 6.42 198.6 24.78 198.6 238.14"/><path class="cls-1" d="M267.67,66.89h42.64a0,0,0,0,1,0,0V376.34a28,28,0,0,1-28,28H267.67a0,0,0,0,1,0,0V66.89a0,0,0,0,1,0,0Z"/><polygon class="cls-1" points="310.31 110.29 155.95 43.85 155.95 0 310.31 66.89 310.31 110.29"/><path class="cls-1" d="M28,104.79H42.64a0,0,0,0,1,0,0v353a0,0,0,0,1,0,0H0a0,0,0,0,1,0,0v-325A28,28,0,0,1,28,104.79Z"/><polygon class="cls-1" points="155.95 525.89 0 459.07 0 415.51 155.95 482.63 155.95 525.89"/><polygon class="cls-1" points="155.95 525.89 113.31 507.23 113.31 350.16 155.95 409.39 155.95 525.89"/><polygon class="cls-1" points="35.67 170.49 42.64 104.8 191.24 308.71 270.86 356.52 267.67 404.31 156.9 336.63 35.67 170.49"/></g></g></svg>